<svg id="Capa_1" enable-background="new 0 0 512 512" height="512" viewBox="0 0 512 512" width="512" xmlns="http://www.w3.org/2000/svg" xmlns:xlink="http://www.w3.org/1999/xlink"><linearGradient id="SVGID_1_" gradientUnits="userSpaceOnUse" x1="256" x2="256" y1="512" y2="0"><stop offset="0" stop-color="#fd3a84"/><stop offset="1" stop-color="#ffa68d"/></linearGradient><linearGradient id="SVGID_2_" gradientUnits="userSpaceOnUse" x1="146.922" x2="422.625" y1="407.529" y2="131.825"><stop offset="0" stop-color="#ffc2cc"/><stop offset="1" stop-color="#fff2f4"/></linearGradient><g><path d="m507.5 89.399-84.599-84.9c-3.001-2.999-6.901-4.499-10.801-4.499s-7.8 1.5-10.499 4.499l-397.1 396.801c-2.701 2.999-4.501 6.899-4.501 10.799s1.8 7.8 4.501 10.499l84.899 84.901c3.001 3.001 6.6 4.501 10.501 4.501s7.8-1.5 10.8-4.501l68.101-68.099-3.9-27.9 24.899 6.899 21.301-21.301-3.9-27.9 25.201 6.599 20.999-20.999-3.898-27.9 25.196 6.602 21.3-21.301-3.9-27.9 24.901 6.601 21.299-21-16.393-22.395 37.694 1.095 21-21.299-3.6-24.6 24.899 3.3 21.301-21-3.9-24.901 25.201 3.602 52.998-53.302c6-5.7 6-15.301 0-21.001z" fill="url(#SVGID_1_)"/><g><g><path d="m274.2 259.1c-6 5.999-6 15.3 0 21.299l31.8 31.8 21-21.299-31.8-31.8c-5.699-5.7-15.299-5.7-21 0zm-84.9 84.899c-6 6-6 15.3 0 21.301l31.8 31.8 21.301-21.301-32.1-31.8c-5.701-5.999-15.301-5.999-21.001 0zm-63.6 21.301c-6 5.7-6 15.3 0 21l53.101 53.101 20.999-21-53.1-53.101c-5.7-6.001-15.3-6.001-21 0zm84.6-84.901c-5.7 5.7-5.7 15.3 0 21.301l53.099 53.101 21.301-21.301-53.101-53.101c-5.7-5.998-15.298-5.998-21.299 0zm191.1-169.799c-6-5.7-15.3-5.7-21.301 0-5.7 6-5.7 15.3 0 21.301l53.101 53.099 21.301-21.299zm-106.199 84.9c-5.7 5.999-5.7 15.298 0 21.299l53.099 53.101 21.301-21.301-53.101-53.099c-6.001-6-15.301-6-21.299 0zm63.6-21.3c-5.7 6-5.7 15.3 0 21.301l31.8 31.8 21.298-21.301-31.8-31.8c-5.7-5.7-15.3-5.7-21.298 0z" fill="url(#SVGID_2_)"/></g></g></g></svg>